<?xml version="1.0" encoding="UTF-8" standalone="no"?>
<!DOCTYPE svg PUBLIC "-//W3C//DTD SVG 1.1//EN" "http://www.w3.org/Graphics/SVG/1.1/DTD/svg11.dtd">
<svg version="1.1" xmlns="http://www.w3.org/2000/svg" xmlns:xlink="http://www.w3.org/1999/xlink" preserveAspectRatio="xMidYMid meet" viewBox="0 0 1200 800" width="1200" height="800"><defs><path d="M1151.69 2.8C1179.39 2.8 1201.85 25.26 1201.85 52.97C1201.85 201.81 1201.85 598.19 1201.85 747.03C1201.85 774.74 1179.39 797.2 1151.69 797.2C921.38 797.2 280.64 797.2 50.33 797.2C22.62 797.2 0.16 774.74 0.16 747.03C0.16 598.19 0.16 201.81 0.16 52.97C0.16 25.26 22.62 2.8 50.33 2.8C280.64 2.8 921.38 2.8 1151.69 2.8Z" id="d232P7r04"></path><path d="M362.74 3.29L364.99 3.39L367.22 3.53L369.42 3.71L371.59 3.93L373.73 4.19L375.83 4.48L377.89 4.81L379.92 5.18L381.91 5.58L383.86 6.01L385.76 6.47L387.62 6.97L389.43 7.49L391.19 8.05L392.9 8.64L394.56 9.25L396.16 9.89L397.71 10.56L399.2 11.26L400.63 11.97L402 12.72L403.3 13.49L404.54 14.28L405.72 15.09L406.82 15.92L407.85 16.78L408.82 17.65L409.7 18.54L410.51 19.45L411.25 20.38L411.9 21.32L412.48 22.28L412.97 23.25L413.37 24.24L413.69 25.24L413.92 26.25L414.06 27.28L414.1 28.31L414.1 69.49L544.65 69.49L544.65 28.31L544.7 27.28L544.84 26.25L545.07 25.24L545.39 24.24L545.79 23.25L546.28 22.28L546.85 21.32L547.51 20.38L548.24 19.45L549.05 18.54L549.94 17.65L550.9 16.78L551.94 15.92L553.04 15.09L554.22 14.28L555.46 13.49L556.76 12.72L558.13 11.97L559.56 11.26L561.05 10.56L562.6 9.89L564.2 9.25L565.86 8.64L567.57 8.05L569.33 7.49L571.14 6.97L573 6.47L574.9 6.01L576.85 5.58L578.84 5.18L580.86 4.81L582.93 4.48L585.03 4.19L587.17 3.93L589.34 3.71L591.54 3.53L593.76 3.39L596.02 3.29L598.3 3.22L600.61 3.21L602.91 3.22L605.19 3.29L607.45 3.39L609.68 3.53L611.88 3.71L614.04 3.93L616.18 4.19L618.28 4.48L620.35 4.81L622.38 5.18L624.36 5.58L626.31 6.01L628.21 6.47L630.07 6.97L631.88 7.49L633.64 8.05L635.35 8.64L637.01 9.25L638.61 9.89L640.16 10.56L641.65 11.26L643.08 11.97L644.45 12.72L645.76 13.49L647 14.28L648.17 15.09L649.27 15.92L650.31 16.78L651.27 17.65L652.16 18.54L652.97 19.45L653.7 20.38L654.36 21.32L654.93 22.28L655.42 23.25L655.82 24.24L656.14 25.24L656.37 26.25L656.51 27.28L656.56 28.31L656.56 69.49L787.11 69.49L787.11 28.31L787.16 27.28L787.29 26.25L787.52 25.24L787.84 24.24L788.25 23.25L788.74 22.28L789.31 21.32L789.96 20.38L790.7 19.45L791.51 18.54L792.4 17.65L793.36 16.78L794.39 15.92L795.5 15.09L796.67 14.28L797.91 13.49L799.22 12.72L800.58 11.97L802.01 11.26L803.5 10.56L805.05 9.89L806.66 9.25L808.31 8.64L810.02 8.05L811.79 7.49L813.6 6.97L815.45 6.47L817.36 6.01L819.3 5.58L821.29 5.18L823.32 4.81L825.38 4.48L827.48 4.19L829.62 3.93L831.79 3.71L833.99 3.53L836.22 3.39L838.47 3.29L840.75 3.22L843.05 3.21L845.36 3.22L847.65 3.29L849.9 3.39L852.13 3.53L854.33 3.71L856.5 3.93L858.63 4.19L860.74 4.48L862.8 4.81L864.83 5.18L866.82 5.58L868.76 6.01L870.67 6.47L872.52 6.97L874.33 7.49L876.09 8.05L877.8 8.64L879.46 9.25L881.07 9.89L882.61 10.56L884.1 11.26L885.53 11.97L886.9 12.72L888.21 13.49L889.45 14.28L890.62 15.09L891.73 15.92L892.76 16.78L893.72 17.65L894.61 18.54L895.42 19.45L896.16 20.38L896.81 21.32L897.38 22.28L897.87 23.25L898.28 24.24L898.6 25.24L898.82 26.25L898.96 27.28L899.01 28.31L899.01 69.49L1197.41 69.49L1197.41 797.61L3.8 797.61L3.8 69.49L302.2 69.49L302.2 28.31L302.25 27.28L302.39 26.25L302.62 25.24L302.93 24.24L303.34 23.25L303.83 22.28L304.4 21.32L305.06 20.38L305.79 19.45L306.6 18.54L307.49 17.65L308.45 16.78L309.48 15.92L310.59 15.09L311.76 14.28L313 13.49L314.31 12.72L315.68 11.97L317.11 11.26L318.6 10.56L320.14 9.89L321.75 9.25L323.41 8.64L325.12 8.05L326.88 7.49L328.69 6.97L330.55 6.47L332.45 6.01L334.39 5.58L336.38 5.18L338.41 4.81L340.48 4.48L342.58 4.19L344.71 3.93L346.88 3.71L349.08 3.53L351.31 3.39L353.57 3.29L355.85 3.22L358.15 3.2L360.46 3.22L362.74 3.29ZM115.7 722.29L1085.51 722.29L1085.51 144.81L899.01 144.81L899.01 178.96L898.96 179.99L898.82 181.01L898.6 182.03L898.28 183.03L897.87 184.01L897.38 184.99L896.81 185.95L896.16 186.89L895.42 187.82L894.61 188.73L893.72 189.62L892.76 190.49L891.73 191.34L890.62 192.18L889.45 192.99L888.21 193.78L886.9 194.55L885.53 195.29L884.1 196.01L882.61 196.71L881.07 197.38L879.46 198.02L877.8 198.63L876.09 199.22L874.33 199.77L872.52 200.3L870.67 200.8L868.76 201.26L866.82 201.69L864.83 202.09L862.8 202.45L860.74 202.78L858.63 203.08L856.5 203.33L854.33 203.55L852.13 203.74L849.9 203.88L847.65 203.98L845.36 204.04L843.06 204.06L840.75 204.04L838.47 203.98L836.22 203.88L833.99 203.74L831.79 203.55L829.62 203.33L827.48 203.08L825.38 202.78L823.32 202.45L821.29 202.09L819.3 201.69L817.36 201.26L815.45 200.8L813.6 200.3L811.79 199.77L810.02 199.22L808.31 198.63L806.66 198.02L805.05 197.38L803.5 196.71L802.01 196.01L800.58 195.29L799.22 194.55L797.91 193.78L796.67 192.99L795.5 192.18L794.39 191.34L793.36 190.49L792.4 189.62L791.51 188.73L790.7 187.82L789.96 186.89L789.31 185.95L788.74 184.99L788.25 184.01L787.84 183.03L787.52 182.03L787.29 181.01L787.16 179.99L787.11 178.96L787.11 144.81L656.56 144.81L656.56 178.96L656.51 179.99L656.37 181.01L656.14 182.03L655.82 183.03L655.42 184.01L654.93 184.99L654.36 185.95L653.7 186.89L652.97 187.82L652.16 188.73L651.27 189.62L650.31 190.49L649.27 191.34L648.17 192.18L647 192.99L645.76 193.78L644.45 194.55L643.08 195.29L641.65 196.01L640.16 196.71L638.61 197.38L637.01 198.02L635.35 198.63L633.64 199.22L631.88 199.77L630.07 200.3L628.21 200.8L626.31 201.26L624.36 201.69L622.38 202.09L620.35 202.45L618.28 202.78L616.18 203.08L614.04 203.33L611.88 203.55L609.68 203.74L607.45 203.88L605.19 203.98L602.91 204.04L600.61 204.06L598.3 204.04L596.02 203.98L593.76 203.88L591.54 203.74L589.34 203.55L587.17 203.33L585.03 203.08L582.93 202.78L580.86 202.45L578.84 202.09L576.85 201.69L574.9 201.26L573 200.8L571.14 200.3L569.33 199.77L567.57 199.22L565.86 198.63L564.2 198.02L562.6 197.38L561.05 196.71L559.56 196.01L558.13 195.29L556.76 194.55L555.46 193.78L554.22 192.99L553.04 192.18L551.94 191.34L550.9 190.49L549.94 189.62L549.05 188.73L548.24 187.82L547.51 186.89L546.85 185.95L546.28 184.99L545.79 184.01L545.39 183.03L545.07 182.03L544.84 181.01L544.7 179.99L544.65 178.96L544.65 144.81L414.1 144.81L414.1 178.96L414.06 179.99L413.92 181.01L413.69 182.03L413.37 183.03L412.97 184.01L412.48 184.99L411.9 185.95L411.25 186.89L410.51 187.82L409.7 188.73L408.82 189.62L407.85 190.49L406.82 191.34L405.72 192.18L404.54 192.99L403.3 193.78L402 194.55L400.63 195.29L399.2 196.01L397.71 196.71L396.16 197.38L394.56 198.02L392.9 198.63L391.19 199.22L389.43 199.77L387.62 200.3L385.76 200.8L383.86 201.26L381.91 201.69L379.92 202.09L377.89 202.45L375.83 202.78L373.73 203.08L371.59 203.33L369.42 203.55L367.22 203.74L364.99 203.88L362.74 203.98L360.46 204.04L358.15 204.06L355.85 204.04L353.57 203.98L351.31 203.88L349.08 203.74L346.88 203.55L344.71 203.33L342.58 203.08L340.48 202.78L338.41 202.45L336.38 202.09L334.39 201.69L332.45 201.26L330.55 200.8L328.69 200.3L326.88 199.77L325.12 199.22L323.41 198.63L321.75 198.02L320.14 197.38L318.6 196.71L317.11 196.01L315.68 195.29L314.31 194.55L313 193.78L311.76 192.99L310.59 192.18L309.48 191.34L308.45 190.49L307.49 189.62L306.6 188.73L305.79 187.82L305.06 186.89L304.4 185.95L303.83 184.99L303.34 184.01L302.93 183.03L302.62 182.03L302.39 181.01L302.25 179.99L302.2 178.96L302.2 144.81L115.7 144.81L115.7 722.29ZM787.11 656L787.11 559.22L930.89 559.22L930.89 656L787.11 656ZM264.9 656L264.9 559.22L408.68 559.22L408.68 656L264.9 656ZM531.42 656L531.42 559.22L675.21 559.22L675.21 656L531.42 656ZM531.42 501.71L531.42 404.93L675.21 404.93L675.21 501.71L531.42 501.71ZM264.9 501.71L264.9 404.93L408.68 404.93L408.68 501.71L264.9 501.71ZM787.11 501.71L787.11 404.93L930.89 404.93L930.89 501.71L787.11 501.71ZM531.42 351.06L531.42 254.28L675.21 254.28L675.21 351.06L531.42 351.06ZM264.9 351.06L264.9 254.28L408.68 254.28L408.68 351.06L264.9 351.06ZM787.11 351.06L787.11 254.28L930.89 254.28L930.89 351.06L787.11 351.06Z" id="c4M3XtHNwh"></path></defs><g><g><g><use xlink:href="#d232P7r04" opacity="1" fill="#134d1f" fill-opacity="0.17"></use></g><g><use xlink:href="#c4M3XtHNwh" opacity="1" fill="#f28500" fill-opacity="1"></use></g></g></g></svg>