<?xml version="1.0" encoding="UTF-8" standalone="no"?>
<!DOCTYPE svg PUBLIC "-//W3C//DTD SVG 1.1//EN" "http://www.w3.org/Graphics/SVG/1.1/DTD/svg11.dtd">
<svg version="1.1" xmlns="http://www.w3.org/2000/svg" xmlns:xlink="http://www.w3.org/1999/xlink" preserveAspectRatio="xMidYMid meet" viewBox="0 0 1200 800" width="1200" height="800"><defs><path d="M3.2 3.81L1198.84 3.81L1198.84 798.22L3.2 798.22L3.2 3.81Z" id="aOQeyhito"></path><path d="M825.04 75.66L825.07 74.64L825.16 73.63L825.32 72.63L825.53 71.64L825.8 70.66L826.12 69.7L826.5 68.75L826.94 67.82L827.43 66.9L827.97 66L828.56 65.12L829.2 64.26L829.89 63.41L830.62 62.59L831.4 61.79L832.23 61.01L833.1 60.25L834.01 59.51L834.96 58.8L835.95 58.11L836.98 57.45L838.05 56.82L839.15 56.21L840.29 55.63L841.46 55.08L842.67 54.56L843.9 54.07L845.17 53.61L846.47 53.18L847.79 52.79L849.14 52.43L850.51 52.1L851.91 51.81L853.33 51.56L854.78 51.34L856.24 51.16L857.72 51.02L859.22 50.92L860.74 50.86L862.28 50.84L1011.23 50.84L1012.76 50.86L1014.28 50.92L1015.78 51.02L1017.26 51.16L1018.73 51.34L1020.17 51.56L1021.59 51.81L1022.99 52.1L1024.37 52.43L1025.72 52.79L1027.04 53.18L1028.33 53.61L1029.6 54.07L1030.84 54.56L1032.04 55.08L1033.21 55.63L1034.35 56.21L1035.46 56.82L1036.52 57.45L1037.55 58.11L1038.54 58.8L1039.5 59.51L1040.41 60.25L1041.28 61.01L1042.1 61.79L1042.88 62.59L1043.62 63.41L1044.31 64.26L1044.95 65.12L1045.54 66L1046.08 66.9L1046.56 67.82L1047 68.75L1047.38 69.7L1047.71 70.66L1047.98 71.64L1048.19 72.63L1048.34 73.63L1048.43 74.64L1048.46 75.66L1048.46 336.33L1197.41 448.04L1048.46 448.04L1048.46 795.59L716.9 795.59L716.9 795.53L716.93 794.43L716.93 553.31L716.9 552.21L716.8 551.12L716.65 550.04L716.43 548.97L716.15 547.91L715.81 546.88L715.42 545.85L714.97 544.85L714.46 543.86L713.91 542.89L713.3 541.94L712.64 541L711.93 540.09L711.17 539.2L710.36 538.34L709.51 537.49L708.61 536.67L707.67 535.88L706.69 535.11L705.67 534.37L704.6 533.66L703.5 532.97L702.36 532.32L701.19 531.69L699.98 531.1L698.73 530.54L697.46 530.01L696.15 529.51L694.81 529.05L693.45 528.63L692.05 528.24L690.64 527.89L689.19 527.57L687.72 527.3L686.23 527.07L684.72 526.87L683.19 526.72L681.64 526.61L680.07 526.54L678.49 526.52L524.74 526.52L523.15 526.54L521.59 526.61L520.04 526.72L518.5 526.87L516.99 527.07L515.5 527.3L514.04 527.57L512.59 527.89L511.17 528.24L509.78 528.63L508.41 529.05L507.08 529.51L505.77 530.01L504.49 530.54L503.25 531.1L502.04 531.69L500.87 532.32L499.73 532.97L498.62 533.66L497.56 534.37L496.54 535.11L495.56 535.88L494.61 536.67L493.72 537.49L492.87 538.34L492.06 539.2L491.3 540.09L490.59 541L489.93 541.94L489.32 542.89L488.76 543.86L488.26 544.85L487.81 545.85L487.42 546.88L487.08 547.91L486.8 548.97L486.58 550.04L486.43 551.12L486.33 552.21L486.3 553.31L486.3 794.43L486.33 795.53L486.33 795.59L154.76 795.59L154.76 448.04L5.81 448.04L601.61 1.19L825.04 168.76L825.04 75.66Z" id="d16RGxDTyj"></path></defs><g><g><g><use xlink:href="#aOQeyhito" opacity="1" fill="#314004" fill-opacity="0"></use></g><g><use xlink:href="#d16RGxDTyj" opacity="1" fill="#f28500" fill-opacity="0.98"></use></g></g></g></svg>