<?xml version="1.0" encoding="UTF-8" standalone="no"?>
<!DOCTYPE svg PUBLIC "-//W3C//DTD SVG 1.1//EN" "http://www.w3.org/Graphics/SVG/1.1/DTD/svg11.dtd">
<svg version="1.1" xmlns="http://www.w3.org/2000/svg" xmlns:xlink="http://www.w3.org/1999/xlink" preserveAspectRatio="xMidYMid meet" viewBox="0 0 1200 800" width="1200" height="800"><defs><path d="M1099.74 0C1157.87 0 1205 47.13 1205 105.26C1205 244.21 1205 555.79 1205 694.74C1205 752.87 1157.87 800 1099.74 800C880.79 800 329.21 800 110.26 800C52.13 800 5 752.87 5 694.74C5 555.79 5 244.21 5 105.26C5 47.13 52.13 0 110.26 0C329.21 0 880.79 0 1099.74 0Z" id="a18DTYoz9V"></path><path d="" id="h1X8ehas28"></path><path d="M403.33 0L5 464.52L403.33 464.52L118.81 800L1200 335.48L630.95 335.48L1029.29 0L403.33 0Z" id="b3QUzelEHS"></path></defs><g><g><g><use xlink:href="#a18DTYoz9V" opacity="1" fill="#144d1f" fill-opacity="0.67"></use></g><g><g><use xlink:href="#h1X8ehas28" opacity="1" fill-opacity="0" stroke="#16368c" stroke-width="1" stroke-opacity="1"></use></g></g><g><use xlink:href="#b3QUzelEHS" opacity="1" fill="#f57906" fill-opacity="1"></use></g></g></g></svg>